<?xml version="1.0" encoding="iso-8859-1"?>
<!-- Generator: Adobe Illustrator 19.0.0, SVG Export Plug-In . SVG Version: 6.00 Build 0)  -->
<svg version="1.1" id="Layer_1" xmlns="http://www.w3.org/2000/svg" xmlns:xlink="http://www.w3.org/1999/xlink" x="0px" y="0px"
	 viewBox="0 0 479.834 479.834" style="enable-background:new 0 0 479.834 479.834;" xml:space="preserve">
<path d="M479.834,205.685v-30h-32.49c-2.332-14.097-7.889-27.119-15.892-38.277l23-23l-21.213-21.213l-23,23
	c-11.157-8.003-24.179-13.56-38.276-15.892v-32.49h-30v32.51c-12.094,2.014-23.7,6.439-34.064,13.004
	c-22.054-12.907-47.668-20.263-74.835-20.263c-70.875,0-131.216,50.022-145.191,118.252C38.375,217.666,0,260.064,0,311.258
	c0,55.561,45.202,100.763,100.763,100.763h264.601c55.561,0,100.763-45.202,100.763-100.763c0-28.542-11.938-54.34-31.071-72.691
	c6.172-10.063,10.335-21.227,12.268-32.882H479.834z M365.364,382.021H100.763C61.744,382.021,30,350.277,30,311.258
	s31.746-70.763,70.768-70.763H114.1l1.564-13.24c7.018-59.399,57.489-104.191,117.399-104.191
	c59.911,0,110.382,44.792,117.399,104.191l1.564,13.24h13.332c39.021,0,70.768,31.744,70.768,70.763
	S404.383,382.021,365.364,382.021z M378.255,211.316c-6.277-30.646-21.912-57.614-43.65-78.031
	c7.083-2.755,14.667-4.217,22.358-4.217c33.976,0,61.616,27.641,61.616,61.617c0,10.782-2.833,21.283-8.098,30.515
	C400.556,216.206,389.709,212.785,378.255,211.316z"/>
<g>
</g>
<g>
</g>
<g>
</g>
<g>
</g>
<g>
</g>
<g>
</g>
<g>
</g>
<g>
</g>
<g>
</g>
<g>
</g>
<g>
</g>
<g>
</g>
<g>
</g>
<g>
</g>
<g>
</g>
</svg>
