<?xml version="1.0" encoding="iso-8859-1"?>
<!-- Generator: Adobe Illustrator 19.0.0, SVG Export Plug-In . SVG Version: 6.00 Build 0)  -->
<svg version="1.1" id="Layer_1" xmlns="http://www.w3.org/2000/svg" xmlns:xlink="http://www.w3.org/1999/xlink" x="0px" y="0px"
	 viewBox="0 0 466.127 466.127" style="enable-background:new 0 0 466.127 466.127;" xml:space="preserve">
<path d="M429.343,225.081c13.131-9.62,23.536-22.723,29.914-38.119c18.99-45.849-2.86-98.6-48.708-117.591
	c-14.595-6.046-30.575-8.145-46.208-6.069l-25.695,3.409l15.759,20.58c13.003,16.982,16.01,39.777,7.846,59.488
	c-1.047,2.526-2.263,4.94-3.609,7.26c-26.378-41.952-73.085-69.395-125.578-69.395c-70.876,0-131.217,50.022-145.191,118.252
	C38.376,209.246,0,251.645,0,302.839C0,358.4,45.202,403.602,100.763,403.602h264.602c55.561,0,100.763-45.202,100.763-100.763
	C466.127,271.557,451.782,243.577,429.343,225.081z M389.966,158.261c8.479-20.473,8.932-43.155,1.939-63.621
	c2.43,0.663,4.823,1.48,7.163,2.449c30.565,12.66,45.132,47.828,32.472,78.393c-6.115,14.761-17.798,26.346-32.455,32.423
	c-6.655-2.371-13.62-4.082-20.831-5.007c-1.285-6.272-2.964-12.389-5.005-18.329C380.292,176.892,385.898,168.081,389.966,158.261z
	 M365.364,373.602H100.763C61.744,373.602,30,341.858,30,302.839s31.746-70.763,70.768-70.763H114.1l1.564-13.24
	c7.018-59.398,57.488-104.191,117.399-104.191s110.382,44.792,117.399,104.191l1.564,13.24h13.332
	c39.021,0,70.768,31.744,70.768,70.763S404.383,373.602,365.364,373.602z"/>
<g>
</g>
<g>
</g>
<g>
</g>
<g>
</g>
<g>
</g>
<g>
</g>
<g>
</g>
<g>
</g>
<g>
</g>
<g>
</g>
<g>
</g>
<g>
</g>
<g>
</g>
<g>
</g>
<g>
</g>
</svg>
