<?xml version="1.0" encoding="iso-8859-1"?>
<!-- Generator: Adobe Illustrator 19.0.0, SVG Export Plug-In . SVG Version: 6.00 Build 0)  -->
<svg version="1.1" id="Layer_1" xmlns="http://www.w3.org/2000/svg" xmlns:xlink="http://www.w3.org/1999/xlink" x="0px" y="0px"
	 viewBox="0 0 485.06 485.06" style="enable-background:new 0 0 485.06 485.06;" xml:space="preserve">
<path d="M388.259,195.033L242.53,0L96.788,195.051C73.316,226.564,60.91,264.045,60.91,303.44
	c0,100.146,81.475,181.62,181.62,181.62s181.62-81.474,181.62-181.62C424.15,264.044,411.744,226.563,388.259,195.033z
	 M242.53,455.06c-83.604,0-151.62-68.016-151.62-151.62c0-32.89,10.353-64.173,29.924-90.45L242.53,50.12l121.683,162.851
	c19.585,26.295,29.938,57.578,29.938,90.469C394.15,387.044,326.134,455.06,242.53,455.06z"/>
<g>
</g>
<g>
</g>
<g>
</g>
<g>
</g>
<g>
</g>
<g>
</g>
<g>
</g>
<g>
</g>
<g>
</g>
<g>
</g>
<g>
</g>
<g>
</g>
<g>
</g>
<g>
</g>
<g>
</g>
</svg>
