<?xml version="1.0" encoding="iso-8859-1"?>
<!-- Generator: Adobe Illustrator 19.0.0, SVG Export Plug-In . SVG Version: 6.00 Build 0)  -->
<svg version="1.1" id="Layer_1" xmlns="http://www.w3.org/2000/svg" xmlns:xlink="http://www.w3.org/1999/xlink" x="0px" y="0px"
	 viewBox="0 0 485 485" style="enable-background:new 0 0 485 485;" xml:space="preserve">
<g>
	<path d="M50.556,11.286C22.679,11.286,0,33.965,0,61.842c0,27.876,22.679,50.556,50.556,50.556s50.556-22.679,50.556-50.556
		C101.111,33.965,78.432,11.286,50.556,11.286z M50.556,82.397C39.221,82.397,30,73.176,30,61.842s9.221-20.556,20.556-20.556
		s20.556,9.221,20.556,20.556S61.89,82.397,50.556,82.397z"/>
	<polygon points="485,92.62 485,62.62 171.294,62.62 171.294,473.714 201.294,473.714 201.294,290.667 445,290.667 445,260.667 
		201.294,260.667 201.294,92.62 	"/>
</g>
<g>
</g>
<g>
</g>
<g>
</g>
<g>
</g>
<g>
</g>
<g>
</g>
<g>
</g>
<g>
</g>
<g>
</g>
<g>
</g>
<g>
</g>
<g>
</g>
<g>
</g>
<g>
</g>
<g>
</g>
</svg>
