<?xml version="1.0" encoding="iso-8859-1"?>
<!-- Generator: Adobe Illustrator 19.0.0, SVG Export Plug-In . SVG Version: 6.00 Build 0)  -->
<svg version="1.1" id="Layer_1" xmlns="http://www.w3.org/2000/svg" xmlns:xlink="http://www.w3.org/1999/xlink" x="0px" y="0px"
	 viewBox="0 0 466.127 466.127" style="enable-background:new 0 0 466.127 466.127;" xml:space="preserve">
<g>
	<circle cx="168.551" cy="447.938" r="0.5"/>
	<path d="M168.551,432.438c-8.547,0-15.5,6.953-15.5,15.5s6.953,15.5,15.5,15.5s15.5-6.953,15.5-15.5
		S177.098,432.438,168.551,432.438z"/>
	<circle cx="306.076" cy="447.938" r="0.5"/>
	<path d="M306.076,432.438c-8.547,0-15.5,6.953-15.5,15.5s6.953,15.5,15.5,15.5s15.5-6.953,15.5-15.5
		S314.623,432.438,306.076,432.438z"/>
	<circle cx="99.788" cy="377.042" r="0.5"/>
	<path d="M99.788,361.542c-8.547,0-15.5,6.953-15.5,15.5s6.953,15.5,15.5,15.5s15.5-6.953,15.5-15.5S108.335,361.542,99.788,361.542
		z"/>
	<circle cx="374.839" cy="377.042" r="0.5"/>
	<path d="M374.839,361.542c-8.547,0-15.5,6.953-15.5,15.5s6.953,15.5,15.5,15.5s15.5-6.953,15.5-15.5
		S383.386,361.542,374.839,361.542z"/>
	<circle cx="237.313" cy="377.042" r="0.5"/>
	<path d="M237.313,361.542c-8.547,0-15.5,6.953-15.5,15.5s6.953,15.5,15.5,15.5s15.5-6.953,15.5-15.5
		S245.86,361.542,237.313,361.542z"/>
	<path d="M378.255,120.942C364.279,52.711,303.939,2.689,233.063,2.689S101.848,52.711,87.872,120.942
		C38.375,127.292,0,169.69,0,220.883c0,55.561,45.202,100.763,100.763,100.763h264.601c55.561,0,100.763-45.202,100.763-100.763
		C466.127,169.69,427.751,127.292,378.255,120.942z M365.364,291.646H100.763C61.744,291.646,30,259.902,30,220.883
		c0-39.019,31.746-70.763,70.768-70.763H114.1l1.564-13.24c7.018-59.399,57.489-104.192,117.399-104.192
		s110.381,44.793,117.399,104.192l1.564,13.24h13.332c39.021,0,70.768,31.744,70.768,70.763
		C436.127,259.902,404.383,291.646,365.364,291.646z"/>
</g>
<g>
</g>
<g>
</g>
<g>
</g>
<g>
</g>
<g>
</g>
<g>
</g>
<g>
</g>
<g>
</g>
<g>
</g>
<g>
</g>
<g>
</g>
<g>
</g>
<g>
</g>
<g>
</g>
<g>
</g>
</svg>
