<?xml version="1.0" encoding="iso-8859-1"?>
<!-- Generator: Adobe Illustrator 19.0.0, SVG Export Plug-In . SVG Version: 6.00 Build 0)  -->
<svg version="1.1" id="Layer_1" xmlns="http://www.w3.org/2000/svg" xmlns:xlink="http://www.w3.org/1999/xlink" x="0px" y="0px"
	 viewBox="0 0 485 485" style="enable-background:new 0 0 485 485;" xml:space="preserve">
<path d="M376.459,71.027C330.657,25.225,269.76,0,204.986,0C149.271,0,94.852,19.375,51.751,54.555L37.514,66.176l14.237,11.621
	c49.719,40.583,78.235,100.615,78.235,164.704S101.47,366.621,51.751,407.204l-14.237,11.621l14.237,11.621
	C94.852,465.625,149.271,485,204.986,485c64.774,0,125.671-25.225,171.473-71.026c45.802-45.802,71.027-106.699,71.027-171.474
	C447.486,177.726,422.261,116.829,376.459,71.027z M204.986,455c-42.862,0-84.848-13.085-120.012-37.135
	c47.889-45.681,75.012-108.594,75.012-175.365S132.863,112.816,84.974,67.135C120.137,43.085,162.124,30,204.986,30
	c117.173,0,212.5,95.327,212.5,212.5S322.159,455,204.986,455z"/>
<g>
</g>
<g>
</g>
<g>
</g>
<g>
</g>
<g>
</g>
<g>
</g>
<g>
</g>
<g>
</g>
<g>
</g>
<g>
</g>
<g>
</g>
<g>
</g>
<g>
</g>
<g>
</g>
<g>
</g>
</svg>
