<?xml version="1.0" encoding="iso-8859-1"?>
<!-- Generator: Adobe Illustrator 19.0.0, SVG Export Plug-In . SVG Version: 6.00 Build 0)  -->
<svg version="1.1" id="Layer_1" xmlns="http://www.w3.org/2000/svg" xmlns:xlink="http://www.w3.org/1999/xlink" x="0px" y="0px"
	 viewBox="0 0 485 485" style="enable-background:new 0 0 485 485;" xml:space="preserve">
<path d="M354.962,71.027C309.16,25.225,248.263,0,183.489,0c-30.813,0-60.85,5.709-89.274,16.97L59.011,30.916l35.203,13.946
	C175.783,77.175,228.489,154.753,228.489,242.5c0,87.747-52.706,165.325-134.274,197.639l-35.202,13.945l35.202,13.945
	c28.424,11.261,58.46,16.97,89.274,16.97c64.774,0,125.671-25.225,171.474-71.026c45.802-45.802,71.026-106.699,71.026-171.474
	C425.989,177.726,400.764,116.829,354.962,71.027z M183.489,455c-14.567,0-28.935-1.454-42.982-4.34
	c29.575-17.688,55.104-41.542,75.017-70.313c28.108-40.613,42.966-88.28,42.966-137.846s-14.857-97.233-42.966-137.846
	c-19.912-28.771-45.44-52.625-75.017-70.313c14.049-2.886,28.415-4.34,42.982-4.34c117.173,0,212.5,95.327,212.5,212.5
	S300.662,455,183.489,455z"/>
<g>
</g>
<g>
</g>
<g>
</g>
<g>
</g>
<g>
</g>
<g>
</g>
<g>
</g>
<g>
</g>
<g>
</g>
<g>
</g>
<g>
</g>
<g>
</g>
<g>
</g>
<g>
</g>
<g>
</g>
</svg>
