<?xml version="1.0" encoding="iso-8859-1"?>
<!-- Generator: Adobe Illustrator 19.0.0, SVG Export Plug-In . SVG Version: 6.00 Build 0)  -->
<svg version="1.1" id="Layer_1" xmlns="http://www.w3.org/2000/svg" xmlns:xlink="http://www.w3.org/1999/xlink" x="0px" y="0px"
	 viewBox="0 0 485 485" style="enable-background:new 0 0 485 485;" xml:space="preserve">
<path d="M355.014,242.5c0-64.088,28.516-124.121,78.235-164.704l14.237-11.621l-14.237-11.621C390.148,19.375,335.728,0,280.014,0
	C215.24,0,154.343,25.225,108.541,71.027C62.739,116.829,37.514,177.726,37.514,242.5c0,64.774,25.225,125.671,71.026,171.474
	C154.343,459.775,215.24,485,280.014,485c55.714,0,110.134-19.375,153.235-54.555l14.237-11.621l-14.237-11.621
	C383.53,366.621,355.014,306.588,355.014,242.5z M280.014,455c-117.173,0-212.5-95.327-212.5-212.5S162.841,30,280.014,30
	c42.861,0,84.848,13.085,120.011,37.135c-47.889,45.681-75.011,108.594-75.011,175.365s27.123,129.684,75.012,175.365
	C364.863,441.915,322.876,455,280.014,455z"/>
<g>
</g>
<g>
</g>
<g>
</g>
<g>
</g>
<g>
</g>
<g>
</g>
<g>
</g>
<g>
</g>
<g>
</g>
<g>
</g>
<g>
</g>
<g>
</g>
<g>
</g>
<g>
</g>
<g>
</g>
</svg>
