<?xml version="1.0" encoding="iso-8859-1"?>
<!-- Generator: Adobe Illustrator 19.0.0, SVG Export Plug-In . SVG Version: 6.00 Build 0)  -->
<svg version="1.1" id="Layer_1" xmlns="http://www.w3.org/2000/svg" xmlns:xlink="http://www.w3.org/1999/xlink" x="0px" y="0px"
	 viewBox="0 0 485 485" style="enable-background:new 0 0 485 485;" xml:space="preserve">
<path d="M256.511,242.5c0-87.747,52.706-165.325,134.274-197.639l35.203-13.946L390.786,16.97C362.361,5.709,332.325,0,301.511,0
	C236.737,0,175.84,25.225,130.038,71.027C84.236,116.829,59.011,177.726,59.011,242.5c0,64.774,25.225,125.671,71.026,171.474
	C175.84,459.775,236.737,485,301.511,485c30.813,0,60.85-5.709,89.274-16.97l35.203-13.946l-35.203-13.946
	C309.217,407.825,256.511,330.247,256.511,242.5z M301.511,455c-117.173,0-212.5-95.327-212.5-212.5S184.338,30,301.511,30
	c14.567,0,28.934,1.454,42.982,4.34c-29.576,17.688-55.104,41.542-75.017,70.313c-28.108,40.613-42.966,88.28-42.966,137.846
	c0,49.567,14.857,97.233,42.966,137.846c19.912,28.771,45.44,52.625,75.017,70.313C330.445,453.546,316.079,455,301.511,455z"/>
<g>
</g>
<g>
</g>
<g>
</g>
<g>
</g>
<g>
</g>
<g>
</g>
<g>
</g>
<g>
</g>
<g>
</g>
<g>
</g>
<g>
</g>
<g>
</g>
<g>
</g>
<g>
</g>
<g>
</g>
</svg>
