<?xml version="1.0" encoding="iso-8859-1"?>
<!-- Generator: Adobe Illustrator 19.0.0, SVG Export Plug-In . SVG Version: 6.00 Build 0)  -->
<svg version="1.1" id="Layer_1" xmlns="http://www.w3.org/2000/svg" xmlns:xlink="http://www.w3.org/1999/xlink" x="0px" y="0px"
	 viewBox="0 0 485 485" style="enable-background:new 0 0 485 485;" xml:space="preserve">
<path d="M413.974,71.026C368.171,25.225,307.274,0,242.5,0S116.829,25.225,71.026,71.026C25.225,116.829,0,177.726,0,242.5
	s25.225,125.671,71.026,171.474C116.829,459.775,177.726,485,242.5,485s125.671-25.225,171.474-71.026
	C459.775,368.171,485,307.274,485,242.5S459.775,116.829,413.974,71.026z M288.328,34.992C280.526,52.755,262.665,65,242.5,65
	s-38.026-12.245-45.828-30.008C211.437,31.733,226.769,30,242.5,30S273.563,31.733,288.328,34.992z M110.059,115.567
	c6.309,0,11.441,5.132,11.441,11.441s-5.133,11.441-11.441,11.441h-15v92.315H30.329c2.354-43.029,17.561-82.691,41.848-115.197
	H110.059z M45.657,322.524h33.312L119.443,363v52.652C86.8,392.385,60.999,360.124,45.657,322.524z M149.443,433.51v-82.937
	l-58.049-58.049H35.963c-2.499-10.316-4.242-20.922-5.169-31.76h94.265v-95.123c15.458-6.023,26.441-21.069,26.441-38.633
	c0-22.851-18.591-41.441-41.441-41.441H99.374c19.755-18.033,42.919-32.386,68.394-41.988c4.629,12.091,12.173,22.985,22.075,31.648
	C204.416,87.978,223.117,95,242.5,95s38.084-7.022,52.657-19.773c9.902-8.663,17.446-19.557,22.075-31.648
	c16.08,6.061,31.237,14.016,45.198,23.596v31.789h-15.754l-1.244,0.21c-17.974,3.045-32.077,19.626-32.254,37.836h-54.258v90
	h123.812v30H279.247c-34.367,0-62.326,27.959-62.326,62.326c0,29.198,20.18,53.771,47.326,60.501v74.057
	c-7.151,0.73-14.406,1.105-21.747,1.105C209.144,455,177.563,447.265,149.443,433.51z M294.247,448.616v-96.953h-15
	c-17.825,0-32.326-14.501-32.326-32.326s14.501-32.326,32.326-32.326h133.485v-90H288.921v-30h54.256v-29.656
	c0-3.429,3.059-7.317,6.409-8.391h42.845V92.057C431.06,130.556,455,183.784,455,242.5C455,341.829,386.491,425.448,294.247,448.616
	z"/>
<g>
</g>
<g>
</g>
<g>
</g>
<g>
</g>
<g>
</g>
<g>
</g>
<g>
</g>
<g>
</g>
<g>
</g>
<g>
</g>
<g>
</g>
<g>
</g>
<g>
</g>
<g>
</g>
<g>
</g>
</svg>
