<?xml version="1.0" encoding="iso-8859-1"?>
<!-- Generator: Adobe Illustrator 19.0.0, SVG Export Plug-In . SVG Version: 6.00 Build 0)  -->
<svg version="1.1" id="Layer_1" xmlns="http://www.w3.org/2000/svg" xmlns:xlink="http://www.w3.org/1999/xlink" x="0px" y="0px"
	 viewBox="0 0 466.127 466.127" style="enable-background:new 0 0 466.127 466.127;" xml:space="preserve">
<g>
	<rect x="85.763" y="403.668" width="30" height="59.77"/>
	<rect x="262.164" y="423.668" width="30" height="39.77"/>
	<path d="M466.127,220.883c0-51.193-38.375-93.592-87.872-99.941C364.279,52.711,303.939,2.689,233.063,2.689
		S101.848,52.711,87.872,120.942C38.375,127.292,0,169.69,0,220.883c0,50.465,37.291,92.38,85.763,99.646v46.217h30v-45.099h58.2
		v141.792h30V321.646h58.2v65.099h30v-65.099h58.2v141.792h30V320.529C428.836,313.263,466.127,271.348,466.127,220.883z
		 M365.364,291.646H100.763C61.744,291.646,30,259.902,30,220.883c0-39.019,31.746-70.763,70.768-70.763H114.1l1.564-13.24
		c7.018-59.399,57.489-104.192,117.399-104.192s110.381,44.793,117.399,104.192l1.564,13.24h13.332
		c39.021,0,70.768,31.744,70.768,70.763C436.127,259.902,404.383,291.646,365.364,291.646z"/>
</g>
<g>
</g>
<g>
</g>
<g>
</g>
<g>
</g>
<g>
</g>
<g>
</g>
<g>
</g>
<g>
</g>
<g>
</g>
<g>
</g>
<g>
</g>
<g>
</g>
<g>
</g>
<g>
</g>
<g>
</g>
</svg>
