<?xml version="1.0" encoding="iso-8859-1"?>
<!-- Generator: Adobe Illustrator 19.0.0, SVG Export Plug-In . SVG Version: 6.00 Build 0)  -->
<svg version="1.1" id="Layer_1" xmlns="http://www.w3.org/2000/svg" xmlns:xlink="http://www.w3.org/1999/xlink" x="0px" y="0px"
	 viewBox="0 0 482.868 482.868" style="enable-background:new 0 0 482.868 482.868;" xml:space="preserve">
<g>
	<path d="M437.698,162.556c13.131-9.62,23.537-22.723,29.914-38.119c9.2-22.21,9.2-46.673,0-68.883s-26.498-39.508-48.707-48.707
		c-14.594-6.046-30.575-8.144-46.208-6.07l-25.695,3.409l15.758,20.58c13.004,16.983,16.01,39.778,7.845,59.489
		c-1.047,2.526-2.262,4.939-3.608,7.26c-26.379-41.953-73.086-69.396-125.578-69.396c-70.875,0-131.216,50.022-145.191,118.252
		c-49.497,6.35-87.872,48.749-87.872,99.942c0,50.465,37.291,92.38,85.763,99.646v46.217h30v-45.099h58.2v141.791h30V341.077h58.2
		v65.099h30v-65.099h58.2v141.791h30V339.959c48.472-7.266,85.763-49.181,85.763-99.646
		C474.483,209.031,460.138,181.052,437.698,162.556z M398.322,95.736c8.479-20.472,8.932-43.155,1.94-63.622
		c2.43,0.663,4.823,1.48,7.163,2.449c14.807,6.133,26.338,17.665,32.472,32.471c6.133,14.807,6.133,31.116,0,45.922
		c-6.114,14.761-17.797,26.345-32.454,32.422c-6.655-2.371-13.62-4.082-20.831-5.007c-1.285-6.272-2.965-12.389-5.005-18.329
		C388.649,114.366,394.254,105.555,398.322,95.736z M373.72,311.077H109.119c-39.019,0-70.763-31.744-70.763-70.763
		s31.746-70.763,70.768-70.763h13.332l1.564-13.24c7.018-59.399,57.489-104.191,117.399-104.191s110.381,44.792,117.399,104.191
		l1.564,13.24h13.332c39.021,0,70.768,31.744,70.768,70.763S412.739,311.077,373.72,311.077z"/>
	<rect x="94.119" y="423.099" width="30" height="59.769"/>
	<rect x="270.519" y="443.099" width="30" height="39.769"/>
</g>
<g>
</g>
<g>
</g>
<g>
</g>
<g>
</g>
<g>
</g>
<g>
</g>
<g>
</g>
<g>
</g>
<g>
</g>
<g>
</g>
<g>
</g>
<g>
</g>
<g>
</g>
<g>
</g>
<g>
</g>
</svg>
