<?xml version="1.0" encoding="iso-8859-1"?>
<!-- Generator: Adobe Illustrator 19.0.0, SVG Export Plug-In . SVG Version: 6.00 Build 0)  -->
<svg version="1.1" id="Layer_1" xmlns="http://www.w3.org/2000/svg" xmlns:xlink="http://www.w3.org/1999/xlink" x="0px" y="0px"
	 viewBox="0 0 485 485" style="enable-background:new 0 0 485 485;" xml:space="preserve">
<g>
	<path d="M257.5,111.747V87.072h-30v24.675c-86.009,7.616-153.679,80.05-153.679,168.004v15h153.678l0.001,145.734
		c0,8.004-6.512,14.515-14.515,14.515c-8.004,0-14.516-6.511-14.516-14.515h-30c0,24.546,19.97,44.515,44.516,44.515
		s44.515-19.969,44.515-44.515l-0.001-145.734h153.68v-15C411.179,191.797,343.509,119.363,257.5,111.747z M104.627,264.751
		c7.504-69.438,66.474-123.679,137.873-123.679s130.369,54.241,137.873,123.679H104.627z"/>
	<rect x="47.544" y="96.692" width="30" height="64.769"/>
	<rect x="407.456" y="96.692" width="30" height="64.769"/>
	<rect x="47.544" width="30" height="59.769"/>
	<rect x="137.522" width="30" height="93.547"/>
	<rect x="227.5" width="30" height="59.769"/>
	<rect x="317.478" width="30" height="93.547"/>
	<rect x="407.456" width="30" height="59.769"/>
</g>
<g>
</g>
<g>
</g>
<g>
</g>
<g>
</g>
<g>
</g>
<g>
</g>
<g>
</g>
<g>
</g>
<g>
</g>
<g>
</g>
<g>
</g>
<g>
</g>
<g>
</g>
<g>
</g>
<g>
</g>
</svg>
