<?xml version="1.0" encoding="iso-8859-1"?>
<!-- Generator: Adobe Illustrator 19.0.0, SVG Export Plug-In . SVG Version: 6.00 Build 0)  -->
<svg version="1.1" id="Layer_1" xmlns="http://www.w3.org/2000/svg" xmlns:xlink="http://www.w3.org/1999/xlink" x="0px" y="0px"
	 viewBox="0 0 485.999 485.999" style="enable-background:new 0 0 485.999 485.999;" xml:space="preserve">
<g>
	<rect x="88.845" y="426.229" width="30" height="59.77"/>
	<rect x="265.247" y="446.229" width="30" height="39.77"/>
	<path d="M482.917,137.872v-30h-32.49c-2.332-14.097-7.889-27.119-15.892-38.277l23-23l-21.213-21.213l-23,23
		c-11.157-8.003-24.179-13.56-38.276-15.892V0h-30v32.51c-12.094,2.014-23.7,6.439-34.064,13.004
		c-22.053-12.907-47.668-20.264-74.836-20.264c-70.876,0-131.217,50.022-145.191,118.253c-49.497,6.35-87.872,48.749-87.872,99.941
		c0,50.464,37.291,92.38,85.763,99.646v46.217h30v-45.099h58.2v141.792h30V344.208h58.201v65.099h30v-65.099h58.2v141.792h30V343.09
		c48.472-7.266,85.763-49.181,85.763-99.646c0-28.541-11.938-54.34-31.071-72.691c6.172-10.063,10.335-21.227,12.268-32.882H482.917
		z M368.447,314.208H103.845c-39.019,0-70.763-31.744-70.763-70.763c0-39.019,31.746-70.763,70.768-70.763h13.332l1.564-13.24
		c7.018-59.399,57.488-104.191,117.399-104.191s110.382,44.792,117.399,104.191l1.564,13.24h13.332
		c39.021,0,70.768,31.744,70.768,70.763C439.209,282.463,407.465,314.208,368.447,314.208z M381.337,143.503
		c-6.277-30.646-21.912-57.614-43.649-78.031c7.083-2.755,14.667-4.217,22.357-4.217c33.976,0,61.616,27.641,61.616,61.617
		c0,10.782-2.834,21.282-8.098,30.514C403.638,148.393,392.792,144.972,381.337,143.503z"/>
</g>
<g>
</g>
<g>
</g>
<g>
</g>
<g>
</g>
<g>
</g>
<g>
</g>
<g>
</g>
<g>
</g>
<g>
</g>
<g>
</g>
<g>
</g>
<g>
</g>
<g>
</g>
<g>
</g>
<g>
</g>
</svg>
