<?xml version="1.0" encoding="iso-8859-1"?>
<!-- Generator: Adobe Illustrator 19.0.0, SVG Export Plug-In . SVG Version: 6.00 Build 0)  -->
<svg version="1.1" id="Layer_1" xmlns="http://www.w3.org/2000/svg" xmlns:xlink="http://www.w3.org/1999/xlink" x="0px" y="0px"
	 viewBox="0 0 466.126 466.126" style="enable-background:new 0 0 466.126 466.126;" xml:space="preserve">
<path d="M378.254,120.941C364.279,52.711,303.938,2.688,233.063,2.688c-70.875,0-131.216,50.022-145.19,118.253
	C38.376,127.291,0,169.69,0,220.883c0,55.561,45.202,100.763,100.763,100.763h54.367v47h-39.676v94.792h30v-64.792h39.676v-77h87.57
	l-0.001,47h-39.675l-0.001,94.792h30l0.001-64.792h39.675l0.001-77h62.663c55.561,0,100.763-45.202,100.763-100.763
	C466.126,169.69,427.751,127.291,378.254,120.941z M365.363,291.646H100.763C61.744,291.646,30,259.902,30,220.883
	c0-39.019,31.746-70.763,70.768-70.763H114.1l1.564-13.24c7.018-59.399,57.488-104.191,117.398-104.191
	c59.911,0,110.382,44.792,117.399,104.191l1.564,13.24h13.332c39.021,0,70.768,31.744,70.768,70.763
	C436.126,259.902,404.382,291.646,365.363,291.646z"/>
<g>
</g>
<g>
</g>
<g>
</g>
<g>
</g>
<g>
</g>
<g>
</g>
<g>
</g>
<g>
</g>
<g>
</g>
<g>
</g>
<g>
</g>
<g>
</g>
<g>
</g>
<g>
</g>
<g>
</g>
</svg>
